<svg width="31" height="31" viewBox="0 0 31 31" fill="none" xmlns="http://www.w3.org/2000/svg">
<circle cx="15.5" cy="15.5" r="15.5" fill="#00FFAA"/>
<path d="M17.7795 8.9466C15.8892 8.59785 13.9129 8.80129 13.161 8.9466C12.9989 8.58647 12.667 7.86621 12.6366 7.86621C11.5626 8.08734 9.21983 8.65343 8.44144 9.14876C7.21363 10.7978 4.90081 15.3897 5.47196 20.5654C6.3965 21.2414 8.71185 22.6996 10.5769 23.1242C10.9497 22.564 11.6914 21.4297 11.6763 21.3741C11.6573 21.3046 10.1031 20.7423 9.97673 20.5654L10.3684 20.2305C12.009 21.0603 16.3453 22.2219 20.5658 20.2305L20.9828 20.5401C20.4605 20.816 19.3843 21.364 19.2579 21.3488C19.1 21.3298 20.2499 23.0483 20.351 23.1305C20.4521 23.2126 24.186 21.7152 25.4496 20.5401C25.7782 18.6868 25.6417 13.8165 22.4675 9.1614C21.4667 8.59025 19.2706 8.05996 18.2976 7.86621C18.2218 7.88137 17.9206 8.59279 17.7795 8.9466Z" fill="#111111"/>
<ellipse cx="12.1298" cy="16.2555" rx="1.82125" ry="1.99563" fill="#00FFAA"/>
<ellipse cx="18.833" cy="16.2555" rx="1.82125" ry="1.99563" fill="#00FFAA"/>
</svg>
